{# GENERATED by ui/scripts/build-icons.mjs — do not edit by hand.
   Inline pixelarticons sprite (#72): a single source of truth referenced by both
   the askama chrome and the Svelte islands via <use href="#icon-…">. Icons are
   decorative; every control keeps its own title/aria-label.

   pixelarticons — MIT — https://github.com/halfmage/pixelarticons
   MIT License
   
   Copyright (c) 2019 Gerrit Halfmann
   
   Permission is hereby granted, free of charge, to any person obtaining a copy
   of this software and associated documentation files (the "Software"), to deal
   in the Software without restriction, including without limitation the rights
   to use, copy, modify, merge, publish, distribute, sublicense, and/or sell
   copies of the Software, and to permit persons to whom the Software is
   furnished to do so, subject to the following conditions:
   
   The above copyright notice and this permission notice shall be included in all
   copies or substantial portions of the Software.
   
   THE SOFTWARE IS PROVIDED "AS IS", WITHOUT WARRANTY OF ANY KIND, EXPRESS OR
   IMPLIED, INCLUDING BUT NOT LIMITED TO THE WARRANTIES OF MERCHANTABILITY,
   FITNESS FOR A PARTICULAR PURPOSE AND NONINFRINGEMENT. IN NO EVENT SHALL THE
   AUTHORS OR COPYRIGHT HOLDERS BE LIABLE FOR ANY CLAIM, DAMAGES OR OTHER
   LIABILITY, WHETHER IN AN ACTION OF CONTRACT, TORT OR OTHERWISE, ARISING FROM,
   OUT OF OR IN CONNECTION WITH THE SOFTWARE OR THE USE OR OTHER DEALINGS IN THE
   SOFTWARE.
#}
<svg xmlns="http://www.w3.org/2000/svg" style="display:none" aria-hidden="true">
  <symbol id="icon-app" viewBox="0 0 24 24"><path d="M2 6h2v4H2zm0 4h2v4H2zm0 4h2v4H2zm18-8h2v4h-2zm0 4h2v4h-2zm0 4h2v4h-2zM4 4h4v2H4zm0 8h4v-2H4zm0 4h4v-2H4zm0 4h4v-2H4zM16 4h4v2h-4zm0 8h4v-2h-4zm0 4h4v-2h-4zm0 4h4v-2h-4zM8 2h8v2H8zm0 12h8v-2H8zm0 4h8v-2H8zm0 4h8v-2H8z"/></symbol>
  <symbol id="icon-first" viewBox="0 0 24 24"><path d="M4 4v16H2V4zm18 7v2H6v-2zm-12 2v2H8v-2zm2 2v2h-2v-2zm2 2v2h-2v-2zm-4-8v2H8V9zm2-2v2h-2V7zm2-2v2h-2V5z"/></symbol>
  <symbol id="icon-prev" viewBox="0 0 24 24"><path d="M8 13v-2h2v2H8Zm2-2V9h2v2h-2Zm0 4v-2h2v2h-2Zm2-6V7h2v2h-2Zm0 8v-2h2v2h-2Zm2-10V5h2v2h-2Zm0 12v-2h2v2h-2Z"/></symbol>
  <symbol id="icon-next" viewBox="0 0 24 24"><path d="M16 13v-2h-2v2h2Zm-2-2V9h-2v2h2Zm0 4v-2h-2v2h2Zm-2-6V7h-2v2h2Zm0 8v-2h-2v2h2ZM10 7V5H8v2h2Zm0 12v-2H8v2h2Z"/></symbol>
  <symbol id="icon-last" viewBox="0 0 24 24"><path d="M20 4v16h2V4zM2 11v2h16v-2zm12 2v2h2v-2zm-2 2v2h2v-2zm-2 2v2h2v-2zm4-8v2h2V9zm-2-2v2h2V7zm-2-2v2h2V5z"/></symbol>
  <symbol id="icon-collapse" viewBox="0 0 24 24"><path d="M10 15v2H8v-2h2Zm6 2h-2v-2h2v2Zm-8-2H6v-2h2v2Zm10 0h-2v-2h2v2ZM6 13H4v-2h2v2Zm14 0h-2v-2h2v2ZM8 11H6V9h2v2Zm10 0h-2V9h2v2Zm-8-2H8V7h2v2Zm6 0h-2V7h2v2Z"/></symbol>
  <symbol id="icon-delete" viewBox="0 0 24 24"><path d="M18 22H6V20H18V22ZM9 6H15V4H17V6H22V8H20V20H18V8H6V20H4V8H2V6H7V4H9V6ZM15 4H9V2H15V4Z"/></symbol>
  <symbol id="icon-find" viewBox="0 0 24 24"><path d="M22 22h-2v-2h2v2Zm-2-2h-2v-2h2v2Zm-6-2H6v-2h8v2Zm4 0h-2v-2h2v2ZM6 16H4v-2h2v2Zm10 0h-2v-2h2v2ZM4 14H2V6h2v8Zm14 0h-2V6h2v8ZM6 6H4V4h2v2Zm10 0h-2V4h2v2Zm-2-2H6V2h8v2Z"/></symbol>
  <symbol id="icon-pointer" viewBox="0 0 24 24"><path d="M17 9h2v3h-2zm-4-2h2v4h-2zM9 3h2v8H9zM5 3h2v10H5zm14 6h2v2h-2zm-4-2h2v2h-2zm-4 0h2v2h-2zM7 1h2v2H7zM3 11h2v2H3zm-2 2h2v2H1zm0 2h2v2H1zm2 2h2v2H3zm2 2h2v2H5zm2 2h12v2H7zm12-2h2v2h-2zm2-8h2v8h-2zM5 13h2v2H5zm2 2h2v2H7z"/></symbol>
  <symbol id="icon-text" viewBox="0 0 24 24"><path d="M5 2h4v2H5zm0 20h4v-2H5zM9 4h2v2H9zm0 16h2v-2H9zm4-16h2v2h-2zm0 16h2v-2h-2zm2-18h4v2h-4zm0 20h4v-2h-4zM11 6h2v12h-2z"/></symbol>
  <symbol id="icon-field" viewBox="0 0 24 24"><path d="M5 3h4v2H5zm4 2h2v14H9zm2-2h4v2h-4zM4 7h3v2H4zM2 9h2v6H2zm2 6h3v2H4zm9 0h7v2h-7zm7-6h2v6h-2zm-7-2h7v2h-7zM6 19h3v2H6zm5 0h3v2h-3z"/></symbol>
  <symbol id="icon-rect" viewBox="0 0 24 24"><path d="M2 4h2v16H2zm2 16h16v2H4zM20 4h2v16h-2zM4 2h16v2H4z"/></symbol>
  <symbol id="icon-ellipse" viewBox="0 0 24 24"><path d="M6 2h12v2H6zm0 18h12v2H6zM2 6h2v12H2zm18 0h2v12h-2zm-2-2h2v2h-2zm0 14h2v2h-2zM4 4h2v2H4zm0 14h2v2H4z"/></symbol>
  <symbol id="icon-align-left" viewBox="0 0 24 24"><path d="M2 5h20v2H2zm0 6h12v2H2zm0 6h16v2H2z"/></symbol>
  <symbol id="icon-align-center" viewBox="0 0 24 24"><path d="M2 5h20v2H2zm4 6h12v2H6zm-2 6h16v2H4z"/></symbol>
  <symbol id="icon-align-right" viewBox="0 0 24 24"><path d="M2 5h20v2H2zm8 6h12v2H10zm-4 6h16v2H6z"/></symbol>
  <symbol id="icon-obj-align-left" viewBox="0 0 24 24"><path d="M22 5v4h-2V5zm-2-2v2H8V3zM8 5v4H6V5zm12 4v2H8V9zm-5 6v4h-2v-4zm-2-2v2H8v-2zm-5 2v4H6v-4zm5 4v2H8v-2zM4 2v20H2V2z"/></symbol>
  <symbol id="icon-obj-align-hcenter" viewBox="0 0 24 24"><path d="M22 5v4h-2V5zm-3 10v4h-2v-4zM5 15v4h2v-4zM9 3v2H4V3zm11 0v2h-5V3zm-3 10v2h-2v-2zM7 13v2h2v-2zM4 5v4H2V5zm5 4v2H4V9zm11 0v2h-5V9zm-3 10v2h-2v-2zM7 19v2h2v-2zm6-17v20h-2V2z"/></symbol>
  <symbol id="icon-obj-align-right" viewBox="0 0 24 24"><path d="M2 5v4h2V5zm2-2v2h12V3zm12 2v4h2V5zM4 9v2h12V9zm5 6v4h2v-4zm2-2v2h5v-2zm5 2v4h2v-4zm-5 4v2h5v-2zm9-17v20h2V2z"/></symbol>
  <symbol id="icon-obj-align-top" viewBox="0 0 24 24"><path d="M5 22h4v-2H5zm-2-2h2V8H3zM5 8h4V6H5zm4 12h2V8H9zm6-5h4v-2h-4zm-2-2h2V8h-2zm2-5h4V6h-4zm4 5h2V8h-2zM2 4h20V2H2z"/></symbol>
  <symbol id="icon-obj-align-vmiddle" viewBox="0 0 24 24"><path d="M5 2h4v2H5zm10 3h4v2h-4zm0 14h4v-2h-4zM3 15h2v5H3zM3 4h2v5H3zm10 3h2v2h-2zm0 10h2v-2h-2zm-8 3h4v2H5zm4-5h2v5H9zM9 4h2v5H9zm10 3h2v2h-2zm0 10h2v-2h-2zM2 11h20v2H2z"/></symbol>
  <symbol id="icon-obj-align-bottom" viewBox="0 0 24 24"><path d="M5 2h4v2H5zM3 4h2v12H3zm2 12h4v2H5zM9 4h2v12H9zm6 5h4v2h-4zm-2 2h2v5h-2zm2 5h4v2h-4zm4-5h2v5h-2zM2 20h20v2H2z"/></symbol>
  <symbol id="icon-obj-distribute-h" viewBox="0 0 24 24"><path d="M5 8h4V6H5zm10 2h4V8h-4zm-6 6h2V8H9zm10-2h2v-4h-2zM5 18h4v-2H5zm10-2h4v-2h-4zM3 16h2V8H3zm10-2h2v-4h-2zM6 2h2v4H6zm0 16h2v4H6zm10-2h2v6h-2zm0-14h2v6h-2z"/></symbol>
  <symbol id="icon-obj-distribute-v" viewBox="0 0 24 24"><path d="M8 19v-4H6v4zm2-10V5H8v4zm6 6v-2H8v2zM14 5V3h-4v2zm4 14v-4h-2v4zM16 9V5h-2v4zm0 12v-2H8v2zm-2-10V9h-4v2zM2 18v-2h4v2zm16 0v-2h4v2zM16 8V6h6v2zM2 8V6h6v2z"/></symbol>
  <symbol id="icon-obj-same-width" viewBox="0 0 24 24"><path d="M13 13v-2h10v2zm6 2v-2h2v2zm-2 2v-2h2v2zm2-6V9h2v2z"/> <path d="M17 15V7h2v8zm-6-2v-2H1v2zm-6 2v-2H3v2zm2 2v-2H5v2zm-2-6V9H3v2z"/> <path d="M7 15V7H5v8z"/></symbol>
  <symbol id="icon-obj-same-height" viewBox="0 0 24 24"><path d="M13 11h-2V1h2zm2-6h-2V3h2zm2 2h-2V5h2zm-6-2H9V3h2z"/> <path d="M15 7H7V5h8zm-2 6h-2v10h2zm2 6h-2v2h2zm2-2h-2v2h2zm-6 2H9v2h2z"/> <path d="M15 17H7v2h8z"/></symbol>
  <symbol id="icon-z-front" viewBox="0 0 24 24"><path d="M17 15v-2h-2v-2h-2V9h-2v2H9v2H7v2h10Z"/></symbol>
  <symbol id="icon-z-back" viewBox="0 0 24 24"><path d="M17 9v2h-2v2h-2v2h-2v-2H9v-2H7V9h10Z"/></symbol>
  <symbol id="icon-z-forward" viewBox="0 0 24 24"><path d="M13 8h-2v2h2V8Zm-2 2H9v2h2v-2Zm4 0h-2v2h2v-2Zm-6 2H7v2h2v-2Zm8 0h-2v2h2v-2ZM7 14H5v2h2v-2Zm12 0h-2v2h2v-2Z"/></symbol>
  <symbol id="icon-z-backward" viewBox="0 0 24 24"><path d="M13 16h-2v-2h2v2Zm-2-2H9v-2h2v2Zm4 0h-2v-2h2v2Zm-6-2H7v-2h2v2Zm8 0h-2v-2h2v2ZM7 10H5V8h2v2Zm12 0h-2V8h2v2Z"/></symbol>
  <symbol id="icon-undo" viewBox="0 0 24 24"><path d="M18 20h-6v-2h6v2Zm2-2h-2v-8h2v8Zm-10-4H8v-2H6v-2H4V8h2V6h2V4h2v4h8v2h-8v4Z"/></symbol>
  <symbol id="icon-redo" viewBox="0 0 24 24"><path d="M20 8H6v2h14zM4 10h2v8H4zm2 8h6v2H6z"/> <path d="M18 6h-2v6h2zm-2-2h-2v8h2zm0 8h-2v2h2z"/></symbol>
  <symbol id="icon-plus" viewBox="0 0 24 24"><path d="M13 11h7v2h-7v7h-2v-7H4v-2h7V4h2v7Z"/></symbol>
  <symbol id="icon-minus" viewBox="0 0 24 24"><path d="M4 11h16v2H4z"/></symbol>
  <symbol id="icon-settings" viewBox="0 0 24 24"><path d="M18 2h2v2h-2zM4 2h2v2H4zm16 20h-2v-2h2zM4 22h2v-2H4zM20 4h2v2h-2zM6 4h4v2H6zm12 16h-4v-2h4zM6 20h4v-2H6zM18 6h2v4h-2zM4 6h2v4H4zm16 12h-2v-4h2zM4 18h2v-4H4zM14 4h4v2h-4zM2 4h2v2H2zm20 16h-2v-2h2zM2 20h2v-2H2z"/> <path d="M8 2h2v4H8zm0 20h2v-4H8z"/> <path d="M8 2h8v2H8zm0 20h8v-2H8zM2 8h2v8H2zm20 8h-2V8h2z"/> <path d="M20 8h2v4h-2zM10 8h4v2h-4zm-2 2h2v4H8zm2 4h4v2h-4zm4-4h2v4h-2z"/></symbol>
  <symbol id="icon-close" viewBox="0 0 24 24"><path d="M7 19H5V17H7V19ZM19 19H17V17H19V19ZM9 15V17H7V15H9ZM17 17H15V15H17V17ZM11 15H9V13H11V15ZM15 15H13V13H15V15ZM13 13H11V11H13V13ZM11 11H9V9H11V11ZM15 11H13V9H15V11ZM9 9H7V7H9V9ZM17 9H15V7H17V9ZM7 7H5V5H7V7ZM19 7H17V5H19V7Z"/></symbol>
  <symbol id="icon-edit" viewBox="0 0 24 24"><path d="M4 16H6V18H8V20H10V22H2V14H4V16ZM12 20H10V18H12V20ZM14 18H12V16H14V18ZM10 16H8V14H10V16ZM16 16H14V14H16V16ZM6 14H4V12H6V14ZM12 14H10V12H12V14ZM18 14H16V12H18V14ZM8 12H6V10H8V12ZM14 12H12V10H14V12ZM20 12H18V10H20V12ZM10 10H8V8H10V10ZM18 10H16V8H18V10ZM22 10H20V8H22V10ZM12 8H10V6H12V8ZM16 8H14V6H16V8ZM20 8H18V6H20V8ZM14 6H12V4H14V6ZM18 6H16V4H18V6ZM16 4H14V2H16V4Z" fill="currentColor"/></symbol>
  <symbol id="icon-type-text" viewBox="0 0 24 24"><path d="M12 6h10v2H12zm0 4h10v2H12zM2 14h20v2H2zm0 4h20v2H2zM2 4h8v2H2zm3 2h2v6H5z"/> <path d="M3 10h6v2H3zM2 6h2v2H2zm6 0h2v2H8z"/></symbol>
  <symbol id="icon-type-number" viewBox="0 0 24 24"><path d="M9 3h2v5H9zm6 0h2v5h-2zm-7 7h2v4H8zm6 0h2v4h-2zm-7 6h2v5H7zm6 0h2v5h-2zM3 8h18v2H3zm0 6h18v2H3z"/></symbol>
  <symbol id="icon-type-date" viewBox="0 0 24 24"><path d="M5 4h14v2H5zm0 16h14v2H5zM3 10h2v10H3zm0-4h2v2H3zm16 0h2v2h-2zm0 4h2v10h-2zM3 8h18v2H3zm12-6h2v2h-2zM7 2h2v2H7z"/></symbol>
  <symbol id="icon-type-time" viewBox="0 0 24 24"><path d="M6 2h12v2H6zM2 6h2v12H2zm18 0h2v12h-2zm-2-2h2v2h-2zM4 4h2v2H4zm2 18h12v-2H6zm12-2h2v-2h-2zM4 20h2v-2H4zm7-14h2v7h-2zm2 7h2v2h-2zm2 2h2v2h-2z"/></symbol>
  <symbol id="icon-type-timestamp" viewBox="0 0 24 24"><path d="M5 4h14v2H5zm0 16h14v2H5zM3 10h2v10H3zm0-4h2v2H3zm16 0h2v2h-2zm0 4h2v10h-2zM3 8h18v2H3zm12-6h2v2h-2zM7 2h2v2H7zm0 10h8v2H7zm0 4h4v2H7z"/></symbol>
  <symbol id="icon-type-bool" viewBox="0 0 24 24"><path d="M4 2h16v2H4zm0 18h16v2H4zM2 4h2v16H2zm18 0h2v16h-2zM7 12h2v2H7zm2 2h2v2H9zm2-2h2v2h-2zm2-2h2v2h-2zm2-2h2v2h-2z"/></symbol>
</svg>
